<svg width="100" height="100" viewBox="0 0 100 100" xmlns="http://www.w3.org/2000/svg">
  <!-- Background circle -->
  <circle cx="50" cy="50" r="45" fill="#667eea" stroke="#ffffff" stroke-width="2"/>
  
  <!-- Children figures -->
  <g fill="#ffffff">
    <!-- Child 1 -->
    <circle cx="35" cy="30" r="6"/>
    <rect x="32" y="36" width="6" height="12" rx="3"/>
    <rect x="29" y="40" width="3" height="8" rx="1.5"/>
    <rect x="38" y="40" width="3" height="8" rx="1.5"/>
    
    <!-- Child 2 -->
    <circle cx="65" cy="30" r="6"/>
    <rect x="62" y="36" width="6" height="12" rx="3"/>
    <rect x="59" y="40" width="3" height="8" rx="1.5"/>
    <rect x="68" y="40" width="3" height="8" rx="1.5"/>
    
    <!-- Child 3 -->
    <circle cx="50" cy="45" r="6"/>
    <rect x="47" y="51" width="6" height="12" rx="3"/>
    <rect x="44" y="55" width="3" height="8" rx="1.5"/>
    <rect x="53" y="55" width="3" height="8" rx="1.5"/>
  </g>
  
  <!-- Star -->
  <path d="M50 15 L52 21 L58 21 L53 25 L55 31 L50 27 L45 31 L47 25 L42 21 L48 21 Z" fill="#ffd700"/>
  
  <!-- Text -->
  <text x="50" y="85" text-anchor="middle" fill="#ffffff" font-family="Arial" font-size="8" font-weight="bold">الأوائل</text>
</svg>
